<?xml version="1.0" standalone="no"?>
<!DOCTYPE svg PUBLIC "-//W3C//DTD SVG 20010904//EN"
 "http://www.w3.org/TR/2001/REC-SVG-20010904/DTD/svg10.dtd">
<svg version="1.0" xmlns="http://www.w3.org/2000/svg"
 width="244.000000pt" height="310.000000pt" viewBox="0 0 244.000000 310.000000"
 preserveAspectRatio="xMidYMid meet">
<metadata>
Created by potrace 1.16, written by Peter Selinger 2001-2019
</metadata>
<g transform="translate(0.000000,310.000000) scale(0.100000,-0.100000)"
fill="#000000" stroke="none">
<path d="M130 1615 l0 -1325 516 0 515 0 -43 55 -43 55 -417 0 -418 0 2 662 3
663 773 3 772 2 0 214 0 214 -70 4 c-77 4 -112 23 -144 77 -17 29 -23 76 -26
213 0 5 -294 9 -652 10 l-653 3 -3 183 -2 182 705 0 705 0 0 -274 c0 -242 2
-275 17 -287 12 -11 72 -14 272 -16 l256 -2 0 -923 0 -923 -151 -3 -151 -3
-42 -49 c-22 -27 -41 -51 -41 -54 0 -3 113 -6 250 -6 l250 0 0 1033 0 1034
-287 292 -288 291 -802 0 -803 0 0 -1325z m1980 753 c0 -5 -79 -8 -175 -8
l-175 0 0 182 0 183 175 -175 c96 -96 175 -178 175 -182z m-1529 -71 c44 -30
59 -60 59 -124 0 -91 -65 -143 -180 -143 l-60 0 0 -80 0 -80 -55 0 -55 0 0
225 0 225 129 0 c117 0 131 -2 162 -23z m393 9 c65 -27 106 -108 106 -210 0
-78 -14 -127 -47 -167 -42 -49 -77 -59 -213 -59 l-120 0 0 225 0 225 120 0
c81 0 132 -5 154 -14z m486 -31 l0 -45 -106 0 -105 0 3 -42 3 -42 85 -1 85 0
3 -47 3 -48 -90 0 -91 0 0 -90 0 -90 -55 0 -55 0 0 225 0 225 160 0 160 0 0
-45z"/>
<path d="M800 2096 l0 -136 59 0 c43 0 65 5 82 19 22 18 24 27 24 110 0 115
-13 132 -105 139 l-60 4 0 -136z"/>
<path d="M1240 915 l0 -295 -106 0 -106 0 19 -24 c104 -135 437 -526 443 -519
4 4 94 114 200 243 106 129 207 250 223 268 l31 32 -107 0 -107 0 -2 293 -3
292 -242 3 -243 2 0 -295z"/>
</g>
</svg>
